<?xml version="1.0" encoding="utf-8"?>
<!-- Generator: Adobe Illustrator 24.0.3, SVG Export Plug-In . SVG Version: 6.00 Build 0)  -->
<svg version="1.1" id="Layer_1" xmlns="http://www.w3.org/2000/svg" xmlns:xlink="http://www.w3.org/1999/xlink" x="0px" y="0px"
	 viewBox="0 0 227 227" style="enable-background:new 0 0 227 227;" xml:space="preserve">
<style type="text/css">
	.st0{fill:#FFFFFF;}
	.st1{fill:#FFA46C;}
</style>
<rect class="st0" width="227" height="227"/>
<path class="st1" d="M143.87,85c4.47-0.63,14.54-2.37,17.47-5.3c3.8-3.8,3.74-10.01-0.14-13.89s-10.13-3.94-13.91-0.14
	c-2.93,2.93-4.65,13-5.3,17.47C141.84,84.22,142.77,85.15,143.87,85z M83.11,142c-4.47,0.63-14.54,2.37-17.47,5.3
	c-3.78,3.78-3.72,10.01,0.16,13.89s10.09,3.94,13.89,0.14c2.93-2.93,4.65-13,5.3-17.47C85.15,142.78,84.22,141.85,83.11,142z
	 M144.76,91.27c-6.53,0.77-9.61-4.96-9.04-9.04c0.67-4.75,1.46-8.33,2.27-11.18c-18.75-10.84-43.14-8.29-59.2,7.75
	C62.75,94.84,60.2,119.23,71.04,138c2.85-0.81,6.41-1.58,11.18-2.27c6.57-0.77,9.61,4.98,9.04,9.04c-0.67,4.75-1.46,8.33-2.27,11.18
	c18.75,10.84,43.14,8.29,59.2-7.75s18.59-40.43,7.75-59.2C153.09,89.8,149.51,90.57,144.76,91.27z M113.43,83.83
	c0.65-2.61,4.43-2.27,4.67,0.36l0.95,10.35l10.35,0.95c2.65,0.24,2.95,4.02,0.36,4.67l-17.9,4.47c-1.76,0.44-3.3-1.17-2.87-2.87
	L113.43,83.83L113.43,83.83z M95.45,129.38l-0.95-10.35l-10.35-0.95c-2.65-0.24-2.95-4.02-0.36-4.67l17.9-4.47
	c1.74-0.44,3.3,1.15,2.87,2.87l-4.47,17.9C99.49,132.33,95.71,132.03,95.45,129.38L95.45,129.38z M138.12,138.13
	c-5.8,5.8-14.97,9.97-23.08,9.97c-3.74,0-7.24-0.89-10.09-2.91c-1.94-1.36-1.72-4.31,0.4-5.38c5.6-2.89,12.64-8.39,19.35-15.09
	c6.71-6.71,12.2-13.77,15.09-19.35c1.07-2.08,4-2.35,5.4-0.4C151.57,113.94,146.58,129.64,138.12,138.13L138.12,138.13z"/>
</svg>
