<?xml version="1.0" encoding="utf-8"?>
<!-- Generator: Adobe Illustrator 24.0.3, SVG Export Plug-In . SVG Version: 6.00 Build 0)  -->
<svg version="1.1" id="Layer_1" xmlns="http://www.w3.org/2000/svg" xmlns:xlink="http://www.w3.org/1999/xlink" x="0px" y="0px"
	 viewBox="0 0 227 227" style="enable-background:new 0 0 227 227;" xml:space="preserve">
<style type="text/css">
	.st0{fill:#FFFFFF;}
	.st1{fill:#FFA46C;}
</style>
<rect class="st0" width="227" height="227"/>
<path class="st1" d="M171.75,62.26l-7-7c-2.95-2.95-7.74-2.95-10.69,0l0,0L143.13,66.2c-0.92,0.91-1.61,2.03-2.01,3.26l-2.87,8.62
	l-18.01,18.01c-2.87-2.07-6.02-3.72-9.47-4.52c-7.9-1.84-15.82-0.21-21.22,5.2c-2.2,2.21-3.84,4.92-4.78,7.9
	c-1.42,4.38-5.48,7.72-9.95,8.14c-5.6,0.54-10.8,2.7-14.79,6.72c-10.78,10.75-8.84,30.11,4.26,43.21s32.45,15.01,43.21,4.27
	c4.01-3.99,6.18-9.19,6.72-14.81c0.42-4.45,3.75-8.53,8.13-9.95c2.98-0.94,5.69-2.58,7.91-4.78c5.4-5.4,7.02-13.31,5.2-21.19
	c-0.8-3.46-2.45-6.61-4.52-9.49l18-18l8.61-2.87c1.23-0.41,2.34-1.1,3.26-2.01l10.94-10.94C174.69,69.99,174.69,65.21,171.75,62.26
	L171.75,62.26z M102.17,136.17c-6.26,0-11.34-5.07-11.34-11.34c0-6.26,5.07-11.34,11.34-11.34s11.34,5.07,11.34,11.34
	C113.5,131.1,108.43,136.17,102.17,136.17z"/>
</svg>
