<?xml version="1.0" encoding="utf-8"?>
<!-- Generator: Adobe Illustrator 24.0.3, SVG Export Plug-In . SVG Version: 6.00 Build 0)  -->
<svg version="1.1" id="Layer_1" xmlns="http://www.w3.org/2000/svg" xmlns:xlink="http://www.w3.org/1999/xlink" x="0px" y="0px"
	 viewBox="0 0 227 227" style="enable-background:new 0 0 227 227;" xml:space="preserve">
<style type="text/css">
	.st0{fill:#FFFFFF;}
	.st1{fill:#FFA46C;}
</style>
<rect class="st0" width="227" height="227"/>
<path class="st1" d="M94.74,111.7c-5.95,1.73-9.94,6.83-9.54,12.29c1.89-2.11,4.78-3.93,8.27-5.13L94.74,111.7L94.74,111.7z
	 M76.32,119.97L71.06,90.2c-0.05-0.27,0.05-0.43,0.04-0.44c9.58-5.32,20.42-8.13,31.34-8.13c0.27,0,0.54,0.03,0.8,0.03
	c2.31-2.23,5.26-3.79,8.55-4.31c3.13-0.5,6.31-0.75,9.48-0.88c-1.66-2.31-4.06-4.02-6.93-4.48c-3.96-0.63-7.95-0.95-11.92-0.95
	c-12.71,0-25.26,3.22-36.5,9.46c-4.01,2.23-6.16,6.87-5.33,11.53l5.26,29.77c2.36,13.35,22.61,23.56,33.9,23.56
	c0.6,0,1.12-0.08,1.66-0.13c-2.24-2.83-4.8-6.71-6.55-11.21C86.99,131.87,77.3,125.47,76.32,119.97L76.32,119.97z M92.5,97.17
	c-0.12-0.68-0.37-1.31-0.67-1.89c-1.37,1.48-3.43,2.61-5.86,3.04s-4.75,0.07-6.55-0.86c-0.09,0.65-0.11,1.32,0.01,2.01
	c0.64,3.6,4.08,6,7.68,5.37C90.73,104.2,93.14,100.77,92.5,97.17z M161.06,91.1c-14.76-8.19-31.74-11.18-48.42-8.52
	c-4.53,0.72-8.14,4.35-8.96,9.01l-5.26,29.77c-2.55,14.44,15.8,32.55,26.25,34.38c10.45,1.84,33.91-8.92,36.46-23.35l5.26-29.77
	C167.21,97.96,165.07,93.32,161.06,91.1L161.06,91.1z M115.75,107.15c0.64-3.6,4.08-6,7.68-5.37c3.61,0.64,6.02,4.07,5.38,7.66
	c-0.12,0.68-0.37,1.31-0.67,1.89c-1.37-1.48-3.43-2.61-5.86-3.04s-4.75-0.07-6.55,0.86C115.65,108.5,115.63,107.83,115.75,107.15
	L115.75,107.15z M127.43,140.11c-9.23-1.62-15.51-9.83-14.77-18.72c3.42,4.24,9.32,7.66,16.5,8.92c7.18,1.26,13.9,0.06,18.56-2.75
	C145.38,136.16,136.67,141.73,127.43,140.11L127.43,140.11z M149.04,115.01c-1.37-1.48-3.43-2.61-5.86-3.04
	c-2.43-0.43-4.75-0.07-6.55,0.86c-0.09-0.65-0.11-1.32,0.01-2.01c0.64-3.6,4.08-6,7.68-5.37c3.61,0.64,6.02,4.07,5.38,7.66
	C149.6,113.81,149.35,114.43,149.04,115.01L149.04,115.01z"/>
</svg>
