<?xml version="1.0" encoding="utf-8"?>
<!-- Generator: Adobe Illustrator 24.0.3, SVG Export Plug-In . SVG Version: 6.00 Build 0)  -->
<svg version="1.1" id="Layer_1" xmlns="http://www.w3.org/2000/svg" xmlns:xlink="http://www.w3.org/1999/xlink" x="0px" y="0px"
	 viewBox="0 0 288 288" style="enable-background:new 0 0 288 288;" xml:space="preserve">
<style type="text/css">
	.st0{fill:#FFFFFF;}
	.st1{fill:#F9A36D;}
</style>
<rect class="st0" width="288" height="288"/>
<g>
	<path class="st1" d="M143.15,178.18c0,0,12.15,2.09-23.04,50.27c-33.5,45.87-66.74-11.64-69.85-17.25
		c-0.13-0.23-0.26-0.45-0.41-0.66c-1.16-1.61-7.06-11.58,18.97-18.39C97.23,184.71,129.38,173.05,143.15,178.18z"/>
	<path class="st1" d="M164.27,155.32c0,0-13.17,8.05-8.25-56.26c4.69-61.23,72.43-44.13,78.91-42.35c0.26,0.07,0.52,0.13,0.8,0.17
		c2.13,0.3,14,3.15-7.3,28.95C205.21,113.97,180.89,148.27,164.27,155.32z"/>
	<path class="st1" d="M146.43,153.8c0,0-3.01,15.44-40.37-32.94C70.5,74.8,122.74,36.03,127.82,32.43c0.21-0.15,0.41-0.3,0.6-0.48
		c1.49-1.38,10.55-8.28,13.7,25.57C145.56,94.46,152.19,136.48,146.43,153.8z"/>
	<path class="st1" d="M135.97,164.37c0,0,8.45,12.87-57.17,11.58c-62.48-1.22-46.35-70.79-44.66-77.45
		c0.07-0.27,0.13-0.54,0.16-0.82c0.26-2.17,2.94-14.36,29.63,5.72C93.06,125.31,128.47,147.95,135.97,164.37z"/>
	<path class="st1" d="M156.65,181.97c0,0,6.9-7.21,23.35,38.2c15.67,43.24-37.99,39.57-43.17,39.12c-0.21-0.02-0.42-0.03-0.63-0.02
		c-1.61,0.05-10.97-0.49-3.78-21.06C140.27,215.77,146.98,188.91,156.65,181.97z"/>
	<path class="st1" d="M167.77,174.03c0,0-2.79-8.69,36.72,0.92c37.62,9.15,15.26,47.78,13.03,51.46c-0.09,0.15-0.17,0.3-0.25,0.46
		c-0.55,1.24-4.38,8.02-16.91-7.36C186.69,202.73,169.34,184.67,167.77,174.03z"/>
</g>
</svg>
