<?xml version="1.0" encoding="utf-8"?>
<!-- Generator: Adobe Illustrator 24.0.3, SVG Export Plug-In . SVG Version: 6.00 Build 0)  -->
<svg version="1.1" id="Layer_1" xmlns="http://www.w3.org/2000/svg" xmlns:xlink="http://www.w3.org/1999/xlink" x="0px" y="0px"
	 viewBox="0 0 227 227" style="enable-background:new 0 0 227 227;" xml:space="preserve">
<style type="text/css">
	.st0{fill:#FFFFFF;}
	.st1{fill:#F9A36D;}
</style>
<rect class="st0" width="227" height="227"/>
<path class="st1" d="M130.32,113.5c0,9.3-7.52,16.82-16.82,16.82s-16.82-7.52-16.82-16.82s7.52-16.82,16.82-16.82
	S130.32,104.2,130.32,113.5z M154.61,96.68c-9.3,0-16.82,7.52-16.82,16.82s7.52,16.82,16.82,16.82s16.82-7.52,16.82-16.82
	S163.9,96.68,154.61,96.68z M72.39,96.68c-9.3,0-16.82,7.52-16.82,16.82s7.52,16.82,16.82,16.82s16.82-7.52,16.82-16.82
	S81.69,96.68,72.39,96.68z"/>
</svg>
